<?xml version="1.0" encoding="iso-8859-1"?>
<!-- Generator: Adobe Illustrator 19.0.0, SVG Export Plug-In . SVG Version: 6.00 Build 0)  -->
<svg version="1.1" id="Layer_1" xmlns="http://www.w3.org/2000/svg" xmlns:xlink="http://www.w3.org/1999/xlink" x="0px" y="0px"
	 viewBox="0 0 508 508" style="enable-background:new 0 0 508 508;" xml:space="preserve">
<path style="fill:#0074B5;" d="M504,378.8c0,68.8-56.4,125.2-125.2,125.2H129.2C60.4,504,4,447.6,4,378.8V129.2
	C4,60.4,60.4,4,129.2,4h249.6C447.6,4,504,60.4,504,129.2V378.8z"/>
<g>
	<rect x="99.2" y="202.4" style="fill:#FFFFFF;" width="71.6" height="206.4"/>
	<path style="fill:#FFFFFF;" d="M134.4,170.8c20,0,36.4-16.4,36.4-36.4S154.4,98,134.4,98S98,114.4,98,134.4
		C98,154.4,114.4,170.8,134.4,170.8"/>
	<path style="fill:#FFFFFF;" d="M408.8,295.6c0-56-11.6-93.6-76.8-93.6c-31.6,0-52,12.4-60.4,28H270v-27.6h-55.6v206.4H274v-102
		c0-27.2,5.6-53.6,39.2-53.6c33.2,0,36.4,31.2,36.4,55.2v100h59.6V295.6H408.8z"/>
</g>
<path d="M378.8,508H129.2C58,508,0,450,0,378.8V129.2C0,58,58,0,129.2,0h249.6C450,0,508,58,508,129.2v249.6
	C508,450,450,508,378.8,508z M129.2,8C62.4,8,8,62.4,8,129.2v249.6C8,445.6,62.4,500,129.2,500h249.6c66.8,0,121.2-54.4,121.2-121.2
	V129.2C500,62.4,445.6,8,378.8,8H129.2z"/>
<path d="M370,484H138c-62,0-114-52.4-114-114.4V138C24,76,76,24,138,24h231.2c2.4,0,4,1.6,4,4s-1.6,4-4,4H138
	C80.4,32,32,80.4,32,138v232c0,57.6,48.8,106.4,106,106.4h232c57.6,0,106-48.8,106-106.4V258c0-2.4,1.6-4,4-4s4,1.6,4,4v112
	C484,432,432,484,370,484z"/>
<path d="M446.8,65.2c-1.2,0-2-0.4-2.8-1.2c-20.4-20.4-47.6-32-75.2-32c-2.4,0-4-1.6-4-4s1.6-4,4-4c29.6,0,58.8,12.4,80.8,34.4
	c1.6,1.6,1.6,4,0,5.6C449.2,64.8,448,65.2,446.8,65.2z"/>
<path d="M480,234c-2.4,0-4-1.6-4-4v-59.2c0-2.4,1.6-4,4-4s4,1.6,4,4V230C484,232.4,482.4,234,480,234z"/>
<path d="M408.8,412.8h-59.6c-2.4,0-4-1.6-4-4v-100c0-26.8-4-51.2-32.4-51.2c-24.8,0-35.2,14.4-35.2,49.6v102c0,2.4-1.6,4-4,4h-59.2
	c-2.4,0-4-1.6-4-4V202.4c0-2.4,1.6-4,4-4H270c2.4,0,4,1.6,4,4v17.2c12-13.2,32.4-20.8,58-20.8c2.4,0,4,1.6,4,4s-1.6,4-4,4
	c-27.6,0-48.4,9.2-57.2,25.2c-0.8,1.2-2,2-3.6,2H270c-2.4,0-4-1.6-4-4v-23.6h-47.6v198.4H270v-98c0-24.8,4.4-57.6,43.2-57.6
	c40.4,0,40.4,43.2,40.4,59.2v96h51.6V297.6c0-2.4,1.6-4,4-4s4,1.6,4,4v111.2C412.8,410.8,410.8,412.8,408.8,412.8z M170.8,412.8
	H99.2c-2.4,0-4-1.6-4-4V202.4c0-2.4,1.6-4,4-4h71.6c2.4,0,4,1.6,4,4v206.4C174.8,410.8,172.8,412.8,170.8,412.8z M103.2,404.8h63.6
	V206.4h-63.6V404.8z M134.4,174.8c-22.4,0-40.4-18-40.4-40.4C94,112,112,94,134.4,94c2.4,0,4,1.6,4,4s-1.6,4-4,4
	c-18,0-32.4,14.4-32.4,32.4s14.4,32.4,32.4,32.4s32.4-14.4,32.4-32.4c0-2.4,1.6-4,4-4s4,1.6,4,4
	C174.8,156.8,156.8,174.8,134.4,174.8z"/>
<g>
</g>
<g>
</g>
<g>
</g>
<g>
</g>
<g>
</g>
<g>
</g>
<g>
</g>
<g>
</g>
<g>
</g>
<g>
</g>
<g>
</g>
<g>
</g>
<g>
</g>
<g>
</g>
<g>
</g>
</svg>
