<?xml version="1.0" encoding="utf-8"?>
<!-- Generator: Adobe Illustrator 16.0.0, SVG Export Plug-In . SVG Version: 6.00 Build 0)  -->
<!DOCTYPE svg PUBLIC "-//W3C//DTD SVG 1.1//EN" "http://www.w3.org/Graphics/SVG/1.1/DTD/svg11.dtd">
<svg version="1.1" id="Layer_1" xmlns="http://www.w3.org/2000/svg" xmlns:xlink="http://www.w3.org/1999/xlink" x="0px" y="0px"
	 width="135px" height="135px" viewBox="0 0 135 135" style="enable-background:new 0 0 135 135;" xml:space="preserve">
<style type="text/css">
<![CDATA[
	.st0{fill:#465652;}
	.st1{fill:#AAB9BA;}
	.st2{fill:#47C67B;}
	.st3{fill:#AAC8D1;}
	.st4{fill:none;stroke:#E83834;stroke-width:6;stroke-linecap:round;stroke-linejoin:round;stroke-miterlimit:10;}
	.st5{fill:#7BC67B;}
	.st6{fill:#7BC7FF;}
	.st7{fill:#7C34C1;}
	.st8{fill:#7C8D96;}
	.st9{fill:#AD2707;}
	.st10{fill:#ADB8BC;}
	.st11{fill:#107510;}
	.st12{fill:#7FE5D8;}
	.st13{fill:#AF4AD1;}
	.st14{fill:#E02B7E;}
	.st15{fill:#E04038;}
	.st16{fill:#AFD7DD;}
	.st17{fill:#E0A010;}
	.st18{fill:#E0D5A4;}
	.st19{fill:#12B2B2;}
	.st20{fill:#12D66B;}
	.st21{fill:#E1A9FF;}
	.st22{fill:#1362A8;}
	.st23{fill:#E2378D;}
	.st24{fill:#E29C37;}
	.st25{fill:#E2B90E;}
	.st26{fill:#E2BF91;}
	.st27{fill:#E2CBAA;}
	.st28{fill:#14A594;}
	.st29{fill:#E4E9ED;}
	.st30{fill:#4A5D60;}
	.st31{fill:#E5B076;}
	.st32{fill:#E5B1C4;}
	.st33{fill:#E5E4C3;}
	.st34{fill:#4B6466;}
	.st35{fill:#E6FF2E;}
	.st36{fill:#18AA67;}
	.st37{fill:#E86207;}
	.st38{fill:#E8A113;}
	.st39{fill:#E8B5A6;}
	.st40{fill:#E8E8ED;}
	.st41{fill:#4E5154;}
	.st42{fill:#E9F1F4;}
	.st43{fill:#4F4B48;}
	.st44{fill:#4F74E8;}
	.st45{fill:#808E93;}
	.st46{fill:#80949B;}
	.st47{fill:#80EDAC;}
	.st48{fill:#B122E0;}
	.st49{fill:#B2C4CC;}
	.st50{fill:#83D839;}
	.st51{fill:#B3C6C6;}
	.st52{fill:none;stroke:#33363A;stroke-width:3;stroke-linecap:round;stroke-linejoin:round;stroke-miterlimit:10;}
	.st53{fill:#1A8E1C;}
	.st54{fill:#1A93D6;}
	.st55{fill:#B50B0B;}
	.st56{fill:#1AD88F;}
	.st57{fill:#B5DAF4;}
	.st58{fill:#EA7B1F;}
	.st59{fill:#EA81BD;}
	.st60{fill:#87B8D6;}
	.st61{fill:#87C3F4;}
	.st62{fill:#EAC79D;}
	.st63{fill:#EADF11;}
	.st64{fill:#EAE4C5;}
	.st65{fill:#B78094;}
	.st66{fill:#8844D8;}
	.st67{fill:#EBF4F7;}
	.st68{fill:#893015;}
	.st69{fill:#89410B;}
	.st70{fill:#899BA3;}
	.st71{fill:#EDE3B9;}
	.st72{enable-background:new    ;}
	.st73{fill:#50FF9F;}
	.st74{fill:#EEDCF4;}
	.st75{fill:#EFA37D;}
	.st76{fill:#EFA3CC;}
	.st77{fill:#EFC99A;}
	.st78{fill:#54AF79;}
	.st79{fill:#BA503A;}
	.st80{fill:#BA8663;}
	.st81{fill:#8B4FE0;}
	.st82{fill:#58ED9B;}
	.st83{fill:#BC7DFF;}
	.st84{fill:#8D9AA3;}
	.st85{fill:#BCCAD3;}
	.st86{fill:#8DE4FF;}
	.st87{fill:#20B518;}
	.st88{fill:#BF44F2;}
	.st89{fill:#21CEA1;}
	.st90{fill:#BFDAE0;}
	.st91{fill:#F0FBFC;}
	.st92{fill:#F2D9A7;}
	.st93{fill:#F2EAC9;}
	.st94{fill:#24D1AF;}
	.st95{fill:#25931C;}
	.st96{fill:#F4C4B3;}
	.st97{fill:#F4D3A2;}
	.st98{fill:#F4D647;}
	.st99{fill:#F4D7B8;}
	.st100{fill:#F4EC8E;}
	.st101{fill:#5B524D;}
	.st102{fill:#F77819;}
	.st103{fill:#F79AE1;}
	.st104{fill:#5E707A;}
	.st105{fill:#F93585;}
	.st106{fill:#F95D5D;}
	.st107{fill:#F9C19B;}
	.st108{fill:#F9CB58;}
	.st109{fill:#F9D2B2;}
	.st110{fill:#F9F07D;}
	.st111{fill:#F9F1D2;}
	.st112{fill:#F9F4B7;}
	.st113{fill:#F9F9E4;}
	.st114{fill:#5F1DAA;}
	.st115{fill:#5F9AD6;}
	.st116{fill:#C0C0C4;}
	.st117{fill:#91EA57;}
	.st118{fill:#C12727;}
	.st119{fill:#C191A0;}
	.st120{fill:#923BB7;}
	.st121{fill:#93A0A3;}
	.st122{fill:#93F9EA;}
	.st123{fill:#93FF5A;}
	.st124{fill:#C4833D;}
	.st125{fill:#95A2A5;}
	.st126{fill:#965514;}
	.st127{fill:#96562C;}
	.st128{fill:#2AF42F;}
	.st129{fill:#C5D7DD;}
	.st130{fill:#C68510;}
	.st131{fill:#C6A86D;}
	.st132{fill:#C6BB8D;}
	.st133{fill:#2C9DCE;}
	.st134{fill:#FBFCF2;}
	.st135{fill:#FC70B0;}
	.st136{fill:#FCE6C8;}
	.st137{fill:#FCF7E3;}
	.st138{fill:#C90D6B;}
	.st139{fill:#FDFEFF;}
	.st140{fill:#FDFFDC;}
	.st141{fill:#FF1A1A;}
	.st142{fill:#FF5252;}
	.st143{fill:#FF5B00;}
	.st144{fill:#FF6155;}
	.st145{fill:#FF630D;}
	.st146{fill:#FF6666;}
	.st147{fill:#FF7676;}
	.st148{fill:#FF7900;}
	.st149{fill:#FF860D;}
	.st150{fill:#FF8B00;}
	.st151{fill:#FF8F8F;}
	.st152{fill:#FF900B;}
	.st153{fill:#FF908A;}
	.st154{fill:#FF960B;}
	.st155{fill:#FF9C0D;}
	.st156{fill:#FFA9D4;}
	.st157{fill:#FFAA00;}
	.st158{fill:#FFAD40;}
	.st159{fill:#FFAF10;}
	.st160{fill:#FFB000;}
	.st161{fill:#FFBE08;}
	.st162{fill:#FFBF31;}
	.st163{fill:#FFC200;}
	.st164{fill:#FFCAE8;}
	.st165{fill:#FFCCF5;}
	.st166{fill:#FFD00B;}
	.st167{fill:#FFD039;}
	.st168{fill:#FFD400;}
	.st169{fill:#FFD833;}
	.st170{fill:#FFDB80;}
	.st171{fill:#FFDDD2;}
	.st172{fill:#FFE6D4;}
	.st173{fill:#FFE6EB;}
	.st174{fill:#FFE98D;}
	.st175{fill:#FFECD2;}
	.st176{fill:#FFF1D9;}
	.st177{fill:#FFF24D;}
	.st178{fill:#FFF3C2;}
	.st179{fill:#FFF4C7;}
	.st180{fill:#FFF800;}
	.st181{fill:#FFF80D;}
	.st182{fill:#FFF9DE;}
	.st183{fill:#FFFBD7;}
	.st184{fill:#FFFBEB;}
	.st185{fill:#FFFCC0;}
	.st186{fill:#FFFCDC;}
	.st187{fill:#FFFFFA;}
	.st188{fill:#FFFFFF;}
	.st189{fill:#63797F;}
	.st190{fill:#65E529;}
	.st191{fill:#66310E;}
	.st192{fill:#663C17;}
	.st193{fill:#9A5AE5;}
	.st194{fill:#CA30EF;}
	.st195{fill:#6892FC;}
	.st196{fill:#9CFFC4;}
	.st197{fill:#CC4306;}
	.st198{fill:#CC549E;}
	.st199{fill:#9E3256;}
	.st200{fill:#CDFFBB;}
	.st201{fill:#CE86AF;}
	.st202{fill:#CED9DD;}
	
		.st203{fill:none;stroke:#33363A;stroke-width:3;stroke-linecap:round;stroke-linejoin:round;stroke-miterlimit:10;stroke-dasharray:6;}
	.st204{fill:#CFE1E2;}
	.st205{fill:#33363A;}
	.st206{fill:#34C166;}
	.st207{fill:#364B5B;}
	.st208{fill:#3662CE;}
	.st209{fill:#36C6FF;}
	.st210{fill:#6ADB9A;}
	.st211{fill:#6D5C4D;}
	.st212{fill:#6EBDF9;}
	.st213{fill:#0031FF;}
	.st214{fill:#0062FF;}
	.st215{fill:#0068FF;}
	.st216{fill:#0086FF;}
	.st217{fill:#009BE8;}
	.st218{fill:#00AAFF;}
	.st219{fill:#D271FF;}
	.st220{fill:#D363A9;}
	.st221{fill:#D3964C;}
	.st222{fill:#D3DFE2;}
	.st223{fill:#D3E0E2;}
	.st224{fill:#D3EFF4;}
	.st225{fill:#063B66;}
	.st226{fill:#D60909;}
	.st227{fill:#D61D1D;}
	.st228{fill:#D7F0FF;}
	.st229{fill:#09B285;}
	.st230{fill:#D8D593;}
	.st231{fill:#D8E2EA;}
	.st232{fill:#D8E5EA;}
	.st233{fill:#3E5054;}
	.st234{fill:#D988FF;}
	.st235{fill:#D9E7E8;}
	.st236{fill:#702252;}
	.st237{fill:#70D3E0;}
	.st238{fill:#A02FF2;}
	.st239{fill:#A2F255;}
	.st240{fill:#A35616;}
	.st241{fill:#A3CCCC;}
	.st242{fill:#0A6ADD;}
	.st243{fill:#A5145D;}
	.st244{fill:#A57555;}
	.st245{fill:#77D6FC;}
	.st246{fill:#7815CE;}
	.st247{fill:#A7BBC1;}
	.st248{fill:#DBD279;}
	.st249{fill:#0D5C9E;}
	.st250{fill:#A83C11;}
	.st251{fill:#A8633D;}
	.st252{fill:#A8A3E5;}
	.st253{fill:#DCE6EA;}
	.st254{fill:#DCE7EA;}
	.st255{fill:#A962E8;}
	.st256{fill:#DD2466;}
	.st257{fill:#DDC38A;}
	.st258{fill:#DDD2B1;}
	.st259{fill:#DFE7E8;}
	.st260{fill:#42B1E8;}
	.st261{fill:#436377;}
	.st262{fill:#43B530;}
]]>
</style>
<g>
	<g>
		<g>
			<g>
				<path class="st188" d="M13.219,51.363l40.914-40.908c7.097-7.096,19.661-7.084,26.748,0.004l40.902,40.906
					c7.382,7.389,7.382,19.363-0.002,26.748c-7.391,7.377-19.358,7.383-26.745-0.004l-8.617-8.621v41.461
					c0,10.445-8.469,18.912-18.913,18.912c-10.446,0-18.909-8.467-18.909-18.912V69.48l-8.634,8.633
					c-3.696,3.688-8.534,5.535-13.374,5.535c-4.835,0-9.68-1.848-13.372-5.539C5.835,70.721,5.835,58.752,13.219,51.363z"/>
			</g>
			<g>
				<path class="st42" d="M67.263,5.15c4.997-0.059,10.015,1.705,13.618,5.309l40.902,40.906c7.382,7.389,7.382,19.363-0.002,26.748
					c-7.391,7.377-19.358,7.383-26.745-0.004l-8.617-8.621v41.461c0,10.445-8.469,18.912-18.913,18.912
					c-0.082,0-0.161-0.012-0.243-0.012V5.15z"/>
			</g>
			<g>
				<path class="st232" d="M39.962,78.113c-3.696,3.688-8.534,5.535-13.374,5.535c-3.254,0-6.511-0.857-9.419-2.535l36.963-36.959
					c7.097-7.092,19.661-7.084,26.748,0.006l36.949,36.953c-7.23,4.162-16.617,3.176-22.794-3.004l-8.617-8.621v33.699v7.762
					c0,10.445-8.469,18.912-18.913,18.912c-10.446,0-18.909-8.467-18.909-18.912v-7.77V69.48L39.962,78.113z"/>
			</g>
			<g>
				<path class="st42" d="M67.5,38.84v91.021c-10.444-0.002-18.904-8.469-18.904-18.912v-7.77V69.48l-8.634,8.633
					c-3.696,3.688-8.534,5.535-13.374,5.535c-3.254,0-6.511-0.857-9.419-2.535l36.963-36.959C57.679,40.611,62.59,38.84,67.5,38.84z
					"/>
			</g>
			<g>
				<path class="st205" d="M67.505,131.361c-11.253,0-20.409-9.157-20.409-20.412V73.102l-6.074,6.072
					c-3.862,3.854-8.987,5.975-14.434,5.975c-5.451,0-10.577-2.123-14.433-5.979c-7.952-7.96-7.951-20.909,0.002-28.867
					L53.072,9.395c3.659-3.658,8.918-5.756,14.43-5.756c5.516,0,10.779,2.1,14.439,5.76l40.902,40.906
					c7.955,7.962,7.954,20.913-0.002,28.869c-3.859,3.853-8.986,5.974-14.436,5.974c-5.451,0.001-10.576-2.122-14.431-5.978
					l-6.057-6.06v37.839C87.918,122.204,78.761,131.361,67.505,131.361z M48.597,67.98c0.193,0,0.388,0.037,0.574,0.114
					c0.561,0.232,0.926,0.779,0.926,1.386v41.469c0,9.601,7.81,17.412,17.409,17.412c9.602,0,17.413-7.812,17.413-17.412V69.488
					c0-0.606,0.366-1.153,0.926-1.386c0.561-0.234,1.206-0.103,1.635,0.325l8.617,8.621c3.288,3.288,7.66,5.099,12.309,5.099
					s9.023-1.81,12.315-5.096c6.786-6.786,6.787-17.834,0.001-24.626L79.82,11.52c-3.102-3.102-7.592-4.881-12.318-4.881
					c-4.722,0-9.209,1.778-12.309,4.877L14.28,52.424c-6.784,6.789-6.786,17.836-0.002,24.625c3.289,3.288,7.662,5.1,12.311,5.1
					c4.646,0,9.02-1.811,12.314-5.097l8.633-8.632C47.823,68.133,48.206,67.98,48.597,67.98z"/>
			</g>
		</g>
		<g>
			<g>
				<path class="st205" d="M86.525,70.988c-0.384,0-0.768-0.146-1.061-0.439l-9.095-9.089c-0.586-0.586-0.586-1.536,0-2.122
					c0.586-0.586,1.536-0.585,2.122,0l9.095,9.09c0.586,0.585,0.586,1.535,0,2.121C87.293,70.842,86.909,70.988,86.525,70.988z"/>
			</g>
			<g>
				<path class="st205" d="M48.475,70.988c-0.384,0-0.768-0.146-1.061-0.439c-0.585-0.586-0.585-1.536,0-2.121l9.093-9.09
					c0.586-0.585,1.536-0.585,2.122,0c0.585,0.586,0.585,1.536,0,2.122l-9.093,9.089C49.242,70.842,48.858,70.988,48.475,70.988z"/>
			</g>
		</g>
	</g>
	<g>
		<g>
			<path class="st151" d="M84.924,54.697c0,9.625-7.802,17.426-17.425,17.426c-9.623,0-17.424-7.801-17.424-17.426
				c0-9.621,7.801-17.422,17.424-17.422C77.123,37.275,84.924,45.076,84.924,54.697z"/>
		</g>
		<g>
			<path class="st141" d="M84.924,54.697c0,7.373-7.802,13.348-17.425,13.348c-9.623,0-17.424-5.975-17.424-13.348
				c0-7.367,7.801-13.346,17.424-13.346C77.123,41.352,84.924,47.33,84.924,54.697z"/>
		</g>
		<g>
			<path class="st188" d="M50.076,54.697c0,9.625,7.801,17.426,17.424,17.426c9.623,0,17.425-7.801,17.425-17.426H50.076z"/>
		</g>
		<g>
			<path class="st232" d="M67.5,68.045c9.623,0,17.425-5.975,17.425-13.348H50.076C50.076,62.07,57.877,68.045,67.5,68.045z"/>
		</g>
		<g>
			<path class="st205" d="M67.5,73.623c-10.435,0-18.924-8.49-18.924-18.926c0-10.434,8.489-18.922,18.924-18.922
				c10.435,0,18.925,8.488,18.925,18.922C86.424,65.133,77.935,73.623,67.5,73.623z M67.5,38.775
				c-8.78,0-15.924,7.143-15.924,15.922c0,8.782,7.144,15.926,15.924,15.926c8.781,0,15.925-7.144,15.925-15.926
				C83.424,45.918,76.28,38.775,67.5,38.775z"/>
		</g>
		<g>
			<path class="st205" d="M84.924,56.197H50.076c-0.829,0-1.5-0.671-1.5-1.5s0.671-1.5,1.5-1.5h34.849c0.829,0,1.5,0.671,1.5,1.5
				S85.753,56.197,84.924,56.197z"/>
		</g>
		<g>
			<g>
				<circle class="st247" cx="67.5" cy="56.694" r="5.761"/>
			</g>
			<g>
				<circle class="st188" cx="67.5" cy="54.736" r="5.761"/>
			</g>
			<g>
				<path class="st232" d="M63.426,58.811c-2.25-2.25-2.25-5.9,0-8.148c2.251-2.25,5.898-2.25,8.147,0"/>
			</g>
			<g>
				<path class="st205" d="M67.5,61.998c-1.939,0-3.763-0.755-5.135-2.126c-1.372-1.372-2.126-3.196-2.126-5.136
					c0-1.94,0.755-3.764,2.126-5.135c1.372-1.371,3.196-2.126,5.135-2.126s3.763,0.755,5.134,2.127
					c1.371,1.37,2.127,3.193,2.127,5.134c0,1.94-0.756,3.764-2.127,5.135C71.263,61.243,69.44,61.998,67.5,61.998z M67.5,50.475
					c-1.139,0-2.209,0.443-3.014,1.249c-0.805,0.804-1.248,1.874-1.248,3.013c0,1.139,0.443,2.209,1.248,3.014
					c0.805,0.805,1.875,1.248,3.014,1.248c1.138,0,2.208-0.443,3.012-1.248c0.806-0.805,1.249-1.875,1.249-3.014
					s-0.443-2.208-1.248-3.013C69.708,50.918,68.638,50.475,67.5,50.475z"/>
			</g>
		</g>
	</g>
	<g>
		<g>
			<path class="st205" d="M72.256,92.012c-0.384,0-0.768-0.146-1.061-0.439L67.5,87.876l-3.695,3.696
				c-0.586,0.586-1.536,0.586-2.122,0c-0.586-0.585-0.586-1.535,0-2.121l4.756-4.758c0.562-0.562,1.559-0.562,2.122,0l4.756,4.758
				c0.585,0.586,0.585,1.536,0,2.121C73.023,91.865,72.64,92.012,72.256,92.012z"/>
		</g>
		<g>
			<path class="st205" d="M67.5,97.99c-0.829,0-1.5-0.672-1.5-1.5V85.754c0-0.828,0.671-1.5,1.5-1.5s1.5,0.672,1.5,1.5V96.49
				C69,97.318,68.328,97.99,67.5,97.99z"/>
		</g>
		<g>
			<path class="st205" d="M67.5,102.5c-0.4,0-0.78-0.16-1.06-0.44C66.16,101.78,66,101.39,66,101c0-0.4,0.16-0.78,0.44-1.061
				c0.56-0.56,1.56-0.56,2.12,0C68.84,100.22,69,100.6,69,101c0,0.39-0.16,0.78-0.44,1.06C68.28,102.34,67.89,102.5,67.5,102.5z"/>
		</g>
		<g>
			<path class="st205" d="M67.5,107c-0.4,0-0.78-0.16-1.06-0.44c-0.28-0.279-0.44-0.67-0.44-1.06c0-0.4,0.16-0.78,0.44-1.061
				c0.56-0.56,1.56-0.56,2.12,0c0.28,0.28,0.44,0.66,0.44,1.061c0,0.39-0.16,0.78-0.44,1.06C68.28,106.84,67.89,107,67.5,107z"/>
		</g>
		<g>
			<path class="st205" d="M67.5,111.5c-0.39,0-0.78-0.16-1.06-0.44C66.16,110.78,66,110.399,66,110c0-0.4,0.16-0.78,0.44-1.061
				c0.56-0.56,1.57-0.56,2.12,0C68.84,109.22,69,109.6,69,110c0,0.39-0.16,0.78-0.44,1.06C68.28,111.34,67.9,111.5,67.5,111.5z"/>
		</g>
	</g>
	<g>
		<g>
			<g>
				<path class="st205" d="M34.089,111.875c-0.384,0-0.768-0.146-1.061-0.439l-3.695-3.696l-3.695,3.696
					c-0.586,0.586-1.536,0.586-2.122,0c-0.586-0.585-0.586-1.535,0-2.121l4.756-4.758c0.562-0.562,1.559-0.562,2.122,0l4.756,4.758
					c0.585,0.586,0.585,1.536,0,2.121C34.857,111.729,34.473,111.875,34.089,111.875z"/>
			</g>
			<g>
				<path class="st205" d="M29.333,117.854c-0.829,0-1.5-0.672-1.5-1.5v-10.736c0-0.828,0.671-1.5,1.5-1.5s1.5,0.672,1.5,1.5v10.736
					C30.833,117.182,30.162,117.854,29.333,117.854z"/>
			</g>
			<g>
				<path class="st205" d="M29.33,122.359c-0.39,0-0.78-0.159-1.06-0.439c-0.28-0.28-0.44-0.67-0.44-1.061
					c0-0.39,0.16-0.779,0.44-1.06c0.56-0.56,1.56-0.56,2.12,0c0.28,0.28,0.44,0.67,0.44,1.06c0,0.391-0.16,0.78-0.43,1.061
					C30.11,122.2,29.73,122.359,29.33,122.359z"/>
			</g>
			<g>
				<path class="st205" d="M29.33,126.859c-0.39,0-0.78-0.159-1.06-0.439c-0.28-0.28-0.44-0.67-0.44-1.061
					c0-0.39,0.16-0.779,0.44-1.06c0.56-0.56,1.56-0.56,2.12,0c0.28,0.28,0.44,0.67,0.44,1.06c0,0.391-0.16,0.78-0.44,1.061
					C30.11,126.7,29.73,126.859,29.33,126.859z"/>
			</g>
			<g>
				<path class="st205" d="M29.33,131.359c-0.39,0-0.78-0.159-1.06-0.439c-0.28-0.28-0.44-0.67-0.44-1.061
					c0-0.39,0.16-0.779,0.44-1.06c0.56-0.56,1.56-0.56,2.12,0c0.28,0.28,0.44,0.67,0.44,1.06c0,0.391-0.16,0.78-0.43,1.061
					C30.11,131.2,29.72,131.359,29.33,131.359z"/>
			</g>
		</g>
		<g>
			<g>
				<path class="st205" d="M110.423,111.875c-0.384,0-0.768-0.146-1.061-0.439l-3.695-3.696l-3.695,3.696
					c-0.586,0.586-1.536,0.586-2.122,0c-0.586-0.585-0.586-1.535,0-2.121l4.756-4.758c0.562-0.562,1.559-0.562,2.122,0l4.756,4.758
					c0.585,0.586,0.585,1.536,0,2.121C111.19,111.729,110.807,111.875,110.423,111.875z"/>
			</g>
			<g>
				<path class="st205" d="M105.667,117.854c-0.829,0-1.5-0.672-1.5-1.5v-10.736c0-0.828,0.671-1.5,1.5-1.5s1.5,0.672,1.5,1.5
					v10.736C107.167,117.182,106.495,117.854,105.667,117.854z"/>
			</g>
			<g>
				<path class="st205" d="M105.67,122.359c-0.4,0-0.78-0.159-1.06-0.439c-0.28-0.28-0.44-0.67-0.44-1.061
					c0-0.39,0.16-0.779,0.43-1.06c0.57-0.56,1.57-0.56,2.13,0c0.28,0.28,0.44,0.67,0.44,1.06c0,0.391-0.16,0.78-0.44,1.061
					C106.45,122.2,106.06,122.359,105.67,122.359z"/>
			</g>
			<g>
				<path class="st205" d="M105.67,126.859c-0.4,0-0.78-0.159-1.06-0.439c-0.28-0.28-0.44-0.67-0.44-1.061
					c0-0.39,0.16-0.779,0.44-1.06c0.55-0.56,1.56-0.56,2.12,0c0.28,0.28,0.44,0.67,0.44,1.06c0,0.391-0.16,0.78-0.44,1.061
					C106.45,126.7,106.06,126.859,105.67,126.859z"/>
			</g>
			<g>
				<path class="st205" d="M105.67,131.359c-0.4,0-0.78-0.159-1.06-0.439c-0.28-0.28-0.44-0.67-0.44-1.061
					c0-0.39,0.16-0.779,0.43-1.06c0.57-0.56,1.57-0.56,2.13,0c0.28,0.28,0.44,0.67,0.44,1.06c0,0.391-0.16,0.78-0.44,1.061
					C106.45,131.2,106.06,131.359,105.67,131.359z"/>
			</g>
		</g>
	</g>
</g>
</svg>
