<?xml version="1.0" standalone="no"?>
<!DOCTYPE svg PUBLIC "-//W3C//DTD SVG 20010904//EN"
 "http://www.w3.org/TR/2001/REC-SVG-20010904/DTD/svg10.dtd">
<svg version="1.0" xmlns="http://www.w3.org/2000/svg"
 width="512.000000pt" height="512.000000pt" viewBox="0 0 512.000000 512.000000"
 preserveAspectRatio="xMidYMid meet">
<metadata>
Created by potrace 1.16, written by Peter Selinger 2001-2019
</metadata>
<g transform="translate(0.000000,512.000000) scale(0.100000,-0.100000)"
fill="#fe7e02" stroke="none">
<path d="M3454 4941 c-11 -5 -34 -25 -52 -45 -28 -32 -32 -44 -32 -94 0 -64
19 -102 66 -133 27 -18 55 -19 497 -19 l467 0 0 -130 0 -129 -476 -3 -475 -3
-40 -42 c-36 -39 -39 -47 -39 -100 0 -65 19 -103 66 -134 27 -18 55 -19 497
-19 l467 0 0 -130 0 -129 -476 -3 -475 -3 -40 -42 c-36 -39 -39 -47 -39 -100
0 -65 19 -103 66 -134 27 -18 55 -19 497 -19 l467 0 0 -130 0 -129 -476 -3
-475 -3 -40 -42 c-36 -39 -39 -47 -39 -100 0 -65 19 -103 66 -134 27 -18 55
-19 497 -19 l467 0 0 -130 0 -129 -476 -3 -475 -3 -40 -42 c-36 -39 -39 -47
-39 -100 0 -65 19 -103 66 -134 27 -18 55 -19 497 -19 l467 0 0 -1071 c0
-1050 0 -1072 20 -1104 37 -60 65 -67 250 -63 159 3 167 4 225 32 77 38 153
114 191 191 l29 60 0 2105 0 2105 -29 60 c-38 77 -114 153 -191 191 l-60 29
-680 2 c-374 1 -689 -2 -701 -6z"/>
<path d="M1473 4925 c-100 -31 -190 -112 -241 -215 l-27 -55 -3 -892 -2 -893
280 0 280 0 0 1035 0 1035 -122 -1 c-72 0 -141 -6 -165 -14z"/>
<path d="M2060 3906 l0 -1036 280 0 280 0 -2 893 -3 892 -29 60 c-38 77 -114
153 -191 191 -56 27 -69 29 -197 32 l-138 4 0 -1036z"/>
<path d="M1106 2551 c-65 -43 -66 -48 -66 -346 l0 -270 -138 3 c-169 5 -271
-16 -409 -83 -234 -114 -413 -335 -473 -585 -28 -117 -28 -303 0 -420 60 -250
239 -472 473 -585 144 -69 196 -80 387 -80 191 0 243 11 387 80 234 113 413
335 473 585 19 82 20 116 20 903 l0 817 -312 0 c-290 0 -315 -2 -342 -19z
m-56 -1059 c31 -12 82 -43 115 -69 248 -201 232 -574 -32 -749 -257 -171 -611
-39 -698 260 -23 79 -17 219 13 296 45 115 162 225 287 269 80 29 233 25 315
-7z"/>
<path d="M789 1207 c-55 -37 -79 -81 -79 -147 0 -43 6 -65 23 -91 37 -55 81
-79 147 -79 43 0 65 6 91 23 55 37 79 81 79 147 0 66 -24 110 -79 147 -47 32
-135 32 -182 0z"/>
<path d="M2060 1758 c0 -780 1 -816 20 -897 41 -169 131 -322 263 -448 93 -88
202 -153 327 -195 92 -31 101 -32 265 -33 197 0 246 10 392 80 234 113 413
335 473 585 28 117 28 303 0 420 -60 250 -239 471 -473 585 -138 67 -240 88
-409 83 l-138 -3 0 270 c0 390 28 365 -407 365 l-313 0 0 -812z m1050 -266
c72 -28 163 -103 211 -172 144 -211 88 -503 -124 -644 -225 -148 -523 -77
-661 159 -62 104 -73 277 -28 395 45 115 162 225 287 269 80 29 233 25 315 -7z"/>
<path d="M2849 1207 c-55 -37 -79 -81 -79 -147 0 -102 68 -170 170 -170 102 0
170 68 170 170 0 66 -24 110 -79 147 -47 32 -135 32 -182 0z"/>
</g>
</svg>
