<?xml version="1.0" standalone="no"?>
<!DOCTYPE svg PUBLIC "-//W3C//DTD SVG 20010904//EN"
 "http://www.w3.org/TR/2001/REC-SVG-20010904/DTD/svg10.dtd">
<svg version="1.0" xmlns="http://www.w3.org/2000/svg"
 width="512.000000pt" height="512.000000pt" viewBox="0 0 512.000000 512.000000"
 preserveAspectRatio="xMidYMid meet">
<metadata>
Created by potrace 1.16, written by Peter Selinger 2001-2019
</metadata>
<g transform="translate(0.000000,512.000000) scale(0.100000,-0.100000)"
fill="#fe7e02" stroke="none">
<path d="M505 4973 c-366 -146 -371 -148 -425 -203 -63 -62 -80 -104 -80 -199
0 -53 18 -111 151 -478 84 -230 164 -436 178 -458 34 -52 99 -85 166 -85 50 0
126 27 140 50 5 8 23 -29 46 -96 21 -60 61 -155 89 -210 35 -72 53 -122 60
-170 14 -99 36 -169 80 -250 l38 -72 -52 -63 c-177 -216 -310 -490 -366 -759
-33 -161 -40 -298 -40 -775 0 -271 -4 -475 -10 -495 -15 -55 -53 -99 -129
-149 -79 -52 -122 -101 -160 -181 -23 -49 -26 -67 -26 -166 0 -106 1 -112 28
-147 53 -70 30 -67 597 -67 563 0 551 -1 619 63 52 50 81 120 81 200 l0 67
324 0 323 0 6 -73 c9 -121 52 -191 142 -233 l50 -24 1393 0 1392 0 0 135 0
135 -80 287 c-44 159 -87 302 -94 320 -58 125 -412 196 -986 196 -345 0 -605
-26 -797 -79 l-23 -6 0 379 c0 476 -10 563 -95 823 -60 182 -170 379 -302 542
l-55 68 45 92 c41 85 77 210 77 270 0 13 24 72 54 133 30 60 69 153 87 205 18
52 33 96 34 98 2 1 24 -9 50 -23 105 -55 233 -18 285 85 10 19 84 217 166 440
141 386 148 408 148 480 0 66 -3 82 -30 130 -17 30 -49 69 -72 86 -25 20 -177
86 -399 175 l-358 144 -105 0 c-96 0 -110 -3 -159 -28 -29 -16 -95 -69 -146
-118 l-92 -89 -458 0 -459 0 -96 95 c-120 118 -159 137 -290 142 l-95 4 -370
-148z m523 -38 c20 -9 65 -43 98 -77 l62 -60 -100 -101 c-110 -112 -214 -245
-303 -387 -70 -113 -112 -203 -199 -416 -49 -121 -69 -160 -84 -162 -10 -2
-23 3 -29 10 -18 21 -303 816 -303 843 0 58 36 78 405 225 199 80 364 140 383
140 18 0 49 -7 70 -15z m1966 -101 c442 -176 435 -172 451 -205 8 -15 15 -39
15 -52 0 -13 -67 -208 -148 -433 -125 -343 -152 -409 -169 -412 -11 -2 -25 3
-30 10 -6 7 -39 82 -72 166 -142 355 -304 609 -529 824 l-70 68 65 60 c70 66
110 88 162 89 22 1 141 -41 325 -115z m-595 -238 c184 -180 332 -393 426 -616
l45 -108 -19 -93 c-35 -169 -107 -361 -180 -479 -21 -34 -31 -66 -36 -116 -15
-145 -62 -248 -157 -350 -51 -54 -142 -124 -161 -124 -3 0 -3 23 0 50 l6 50
-92 0 -91 0 0 -36 c0 -92 -90 -150 -169 -110 -54 29 -65 59 -69 194 l-4 122
38 16 c50 21 172 139 195 189 46 100 5 215 -93 266 -33 17 -60 19 -220 19
-207 0 -244 -10 -290 -71 -46 -62 -57 -120 -37 -193 14 -51 115 -157 187 -198
l52 -30 0 -114 c0 -125 -9 -156 -56 -193 -71 -56 -184 11 -184 109 l0 30 -85
0 -85 0 0 -50 0 -50 -42 21 c-65 33 -178 153 -215 229 -40 79 -63 167 -63 236
0 34 -5 58 -15 68 -28 27 -123 237 -160 350 -19 60 -40 146 -46 190 l-12 81
51 115 c105 232 255 446 435 617 l96 89 468 0 468 1 114 -111z m-428 -1312
c11 -14 5 -24 -48 -75 -56 -54 -65 -59 -106 -59 -41 0 -51 5 -101 51 -51 47
-67 75 -49 92 3 4 70 7 148 7 118 0 145 -3 156 -16z m-741 -727 c66 -36 194
-77 240 -77 25 0 27 -4 44 -97 30 -162 73 -236 166 -287 105 -57 236 -42 326
37 58 51 81 97 105 210 10 51 21 102 24 115 4 15 13 22 28 22 79 0 264 77 354
149 l51 40 45 -57 c121 -155 217 -332 275 -512 69 -213 82 -345 82 -871 0
-395 0 -395 -25 -480 -74 -242 -135 -470 -140 -521 l-6 -58 -205 0 c-221 0
-258 7 -269 53 -3 12 -6 267 -8 567 -3 525 -3 547 -24 600 -36 97 -62 139
-123 200 -125 125 -301 175 -469 134 -170 -42 -288 -150 -359 -328 -15 -36
-17 -116 -22 -609 l-5 -569 -28 -24 -28 -24 -460 0 -459 0 0 55 c0 92 29 135
147 214 72 48 123 110 155 189 23 57 23 59 24 592 1 562 4 611 48 791 35 140
140 387 187 437 8 9 31 40 50 68 18 28 52 73 74 101 l40 50 50 -38 c27 -20 79
-53 115 -72z m714 -154 c-19 -90 -32 -120 -62 -143 -44 -35 -126 -21 -157 26
-13 20 -45 145 -45 175 0 5 59 9 139 9 l139 0 -14 -67z m11 -873 c61 -30 122
-91 155 -156 l25 -49 3 -412 3 -413 -326 0 -325 0 0 375 c0 374 5 446 37 509
27 53 97 119 158 148 54 26 69 29 140 26 60 -2 92 -9 130 -28z m2381 -645
c155 -16 256 -30 324 -47 l45 -12 -30 -8 c-126 -35 -473 -68 -710 -68 -243 0
-583 33 -710 68 l-30 8 45 12 c226 56 748 80 1066 47z m-1106 -240 c368 -91
1101 -91 1470 0 52 12 101 24 109 26 11 3 30 -50 78 -216 34 -121 63 -235 63
-252 l0 -33 -985 0 -985 0 0 33 c0 17 28 132 62 255 51 179 66 221 78 216 8
-3 58 -16 110 -29z"/>
<path d="M1070 3965 l0 -85 85 0 85 0 0 85 0 85 -85 0 -85 0 0 -85z"/>
<path d="M2390 3965 l0 -85 85 0 85 0 0 85 0 85 -85 0 -85 0 0 -85z"/>
<path d="M3550 330 l0 -90 85 0 85 0 0 90 0 90 -85 0 -85 0 0 -90z"/>
<path d="M3880 330 l0 -90 85 0 85 0 0 90 0 90 -85 0 -85 0 0 -90z"/>
<path d="M4210 330 l0 -90 85 0 85 0 0 90 0 90 -85 0 -85 0 0 -90z"/>
<path d="M3474 3124 c-58 -21 -118 -76 -145 -131 -31 -65 -32 -161 -1 -222
l22 -45 -22 -45 c-29 -59 -30 -158 -3 -216 57 -118 185 -177 309 -141 46 14
71 30 130 86 l73 70 208 0 208 0 66 -63 c37 -34 83 -71 103 -80 123 -58 276
-6 341 117 30 57 30 174 0 231 l-21 40 20 39 c82 159 -27 355 -207 373 -82 9
-144 -17 -225 -93 l-67 -64 -220 0 -219 0 -54 56 c-30 30 -73 65 -95 76 -51
27 -147 33 -201 12z m134 -168 c15 -8 56 -44 92 -80 l64 -66 285 0 285 0 82
80 c70 69 86 80 116 80 50 0 88 -40 88 -91 0 -32 -8 -47 -54 -96 l-54 -58 54
-58 c46 -49 54 -64 54 -97 0 -30 -6 -43 -31 -64 -53 -45 -80 -37 -173 54 l-82
80 -289 0 -289 0 -82 -80 c-66 -65 -87 -80 -112 -80 -42 0 -81 36 -89 82 -5
34 -2 41 51 96 31 32 56 63 56 68 0 4 -23 31 -50 59 -67 68 -76 111 -32 155
34 33 67 38 110 16z"/>
</g>
</svg>
