<?xml version="1.0" standalone="no"?>
<!DOCTYPE svg PUBLIC "-//W3C//DTD SVG 20010904//EN"
 "http://www.w3.org/TR/2001/REC-SVG-20010904/DTD/svg10.dtd">
<svg version="1.0" xmlns="http://www.w3.org/2000/svg"
 width="512.000000pt" height="512.000000pt" viewBox="0 0 512.000000 512.000000"
 preserveAspectRatio="xMidYMid meet">
<metadata>
Created by potrace 1.16, written by Peter Selinger 2001-2019
</metadata>
<g transform="translate(0.000000,512.000000) scale(0.100000,-0.100000)"
fill="#fe7e02" stroke="none">
<path d="M2235 5105 c-462 -60 -885 -237 -1255 -523 -117 -91 -316 -287 -413
-407 -277 -344 -458 -743 -539 -1192 -20 -114 -23 -159 -23 -418 0 -259 3
-304 24 -424 77 -447 259 -851 538 -1196 97 -120 296 -316 413 -407 205 -159
453 -297 685 -382 133 -49 349 -108 443 -121 l52 -7 0 896 0 896 -325 0 -325
0 0 370 0 370 324 0 325 0 3 393 c4 388 4 393 31 492 83 309 263 512 547 615
139 51 236 63 475 57 176 -4 426 -26 473 -42 9 -3 12 -76 12 -318 l0 -314
-212 -6 c-174 -4 -224 -8 -274 -24 -80 -26 -145 -72 -183 -130 -59 -89 -64
-119 -69 -435 l-4 -288 356 0 c293 0 356 -2 356 -14 0 -12 -91 -614 -105 -693
l-6 -33 -299 0 -300 0 0 -895 c0 -804 2 -895 16 -895 34 0 226 44 334 77 393
119 736 323 1039 618 424 414 678 922 756 1518 20 155 20 473 0 637 -92 742
-510 1412 -1140 1826 -329 216 -695 350 -1085 399 -152 18 -501 18 -645 0z"/>
</g>
</svg>
