<?xml version="1.0" standalone="no"?>
<!DOCTYPE svg PUBLIC "-//W3C//DTD SVG 20010904//EN"
 "http://www.w3.org/TR/2001/REC-SVG-20010904/DTD/svg10.dtd">
<svg version="1.0" xmlns="http://www.w3.org/2000/svg"
 width="512.000000pt" height="512.000000pt" viewBox="0 0 512.000000 512.000000"
 preserveAspectRatio="xMidYMid meet">
<metadata>
Created by potrace 1.16, written by Peter Selinger 2001-2019
</metadata>
<g transform="translate(0.000000,512.000000) scale(0.100000,-0.100000)"
fill="#fe7e02" stroke="none">
<path d="M1111 5104 c-548 -92 -1006 -554 -1096 -1104 -23 -143 -23 -2737 0
-2880 90 -555 550 -1015 1105 -1105 143 -23 2737 -23 2880 0 555 90 1015 550
1105 1105 23 143 23 2737 0 2880 -90 555 -550 1015 -1105 1105 -136 22 -2757
21 -2889 -1z m2284 -894 c398 -38 714 -320 803 -718 15 -70 17 -159 17 -932 0
-771 -2 -863 -17 -932 -81 -361 -345 -625 -706 -706 -70 -15 -159 -17 -932
-17 -771 0 -863 2 -932 17 -361 81 -625 345 -706 706 -15 70 -17 159 -17 932
0 942 -1 917 64 1085 67 173 211 344 369 439 107 64 254 114 368 125 131 12
1557 13 1689 1z"/>
<path d="M1635 3901 c-205 -60 -367 -225 -420 -428 -23 -88 -22 -1737 1 -1826
53 -206 225 -378 430 -431 54 -14 169 -16 914 -16 946 0 906 -3 1044 67 96 48
201 153 249 249 70 138 67 98 67 1044 0 946 3 906 -67 1044 -48 96 -153 201
-249 249 -138 70 -97 67 -1050 66 -787 0 -864 -2 -919 -18z m1859 -360 c43
-29 66 -70 66 -121 0 -51 -23 -92 -66 -121 -61 -40 -152 -18 -195 47 -23 35
-25 104 -4 143 33 65 137 92 199 52z m-766 -257 c91 -19 229 -88 302 -150 179
-152 270 -346 270 -573 0 -127 -18 -207 -69 -315 -72 -154 -193 -277 -346
-351 -113 -55 -202 -76 -325 -76 -123 0 -212 21 -325 76 -153 74 -266 188
-340 340 -57 116 -75 194 -75 325 0 131 18 210 75 325 71 145 182 260 324 334
162 84 320 104 509 65z"/>
<path d="M2411 2991 c-120 -45 -207 -124 -264 -240 -31 -64 -32 -71 -32 -191
0 -122 1 -127 34 -195 45 -92 124 -171 216 -216 68 -33 73 -34 195 -34 122 0
127 1 195 34 92 45 171 124 216 216 33 68 34 73 34 195 0 122 -1 127 -34 195
-45 92 -124 171 -216 215 -65 32 -79 35 -180 37 -90 3 -120 0 -164 -16z"/>
</g>
</svg>
