<?xml version="1.0" standalone="no"?>
<!DOCTYPE svg PUBLIC "-//W3C//DTD SVG 20010904//EN"
 "http://www.w3.org/TR/2001/REC-SVG-20010904/DTD/svg10.dtd">
<svg version="1.0" xmlns="http://www.w3.org/2000/svg"
 width="512.000000pt" height="512.000000pt" viewBox="0 0 512.000000 512.000000"
 preserveAspectRatio="xMidYMid meet">
<metadata>
Created by potrace 1.16, written by Peter Selinger 2001-2019
</metadata>
<g transform="translate(0.000000,512.000000) scale(0.100000,-0.100000)"
fill="#000000" stroke="none">
<path d="M1540 5100 c-401 -68 -724 -234 -1007 -516 -349 -350 -533 -798 -533
-1299 0 -500 185 -949 536 -1299 289 -290 633 -460 1054 -521 138 -21 426 -16
559 9 181 34 348 89 501 166 l83 42 796 -795 c838 -835 836 -834 963 -871 71
-20 203 -21 273 -1 163 48 292 176 339 338 21 71 21 203 0 274 -37 128 -43
134 -876 968 l-789 791 52 108 c129 274 188 569 175 871 -20 470 -209 899
-544 1231 -273 271 -613 442 -999 504 -161 26 -431 26 -583 0z m480 -515 c266
-40 507 -155 703 -336 542 -499 564 -1356 49 -1877 -186 -189 -375 -297 -629
-361 -449 -114 -936 31 -1261 373 -401 425 -475 1054 -183 1561 132 228 353
428 596 538 224 101 489 138 725 102z"/>
<path d="M1030 3939 c-71 -15 -206 -204 -261 -361 -40 -116 -53 -213 -46 -343
10 -190 72 -352 191 -501 70 -87 96 -104 157 -104 82 0 129 49 129 134 0 40
-7 53 -59 118 -107 133 -151 251 -151 403 0 154 45 275 150 404 54 66 60 77
60 119 0 99 -71 153 -170 131z"/>
</g>
</svg>
