<?xml version="1.0" standalone="no"?>
<!DOCTYPE svg PUBLIC "-//W3C//DTD SVG 20010904//EN"
 "http://www.w3.org/TR/2001/REC-SVG-20010904/DTD/svg10.dtd">
<svg version="1.0" xmlns="http://www.w3.org/2000/svg"
 width="512.000000pt" height="512.000000pt" viewBox="0 0 512.000000 512.000000"
 preserveAspectRatio="xMidYMid meet">
<metadata>
Created by potrace 1.16, written by Peter Selinger 2001-2019
</metadata>
<g transform="translate(0.000000,512.000000) scale(0.100000,-0.100000)"
fill="#ffffff" stroke="none">
<path d="M101 4701 c-49 -49 -54 -36 440 -895 254 -441 471 -817 484 -836 22
-34 45 -45 494 -220 259 -101 471 -187 471 -190 0 -3 -212 -88 -471 -190 -380
-148 -474 -188 -488 -209 -10 -14 -228 -391 -484 -837 -501 -869 -495 -856
-446 -905 18 -18 30 -20 68 -16 56 6 4839 2077 4859 2104 6 9 12 33 12 53 0
20 -6 44 -12 53 -20 27 -4803 2098 -4859 2104 -38 4 -50 2 -68 -16z"/>
</g>
</svg>
