<?xml version="1.0" standalone="no" ?>
<!DOCTYPE svg PUBLIC "-//W3C//DTD SVG 20010904//EN"
 "http://www.w3.org/TR/2001/REC-SVG-20010904/DTD/svg10.dtd">
<svg version="1.0"   xmlns="http://www.w3.org/2000/svg"
 width="512.000000pt" height="512.000000pt" viewBox="0 0 512.000000 512.000000"
 preserveAspectRatio="xMidYMid meet">
<metadata>
Created by potrace 1.16, written by Peter Selinger 2001-2019
</metadata>
<g transform="translate(0.000000,512.000000) scale(0.100000,-0.100000)"
fill="#fe7e02" stroke="none">
<path d="M2193 5100 c-215 -56 -397 -206 -493 -405 -79 -163 -80 -174 -80
-719 l0 -476 -476 0 c-545 0 -556 -1 -720 -80 -204 -99 -356 -289 -409 -512
-11 -48 -15 -132 -15 -349 0 -251 2 -295 20 -362 55 -218 204 -400 405 -497
163 -79 174 -80 719 -80 l476 0 0 -476 c0 -545 1 -556 80 -719 97 -201 279
-350 497 -405 67 -18 111 -20 363 -20 252 0 296 2 363 20 218 55 400 204 497
405 74 153 80 194 80 544 l0 301 43 1 c120 3 167 -12 277 -85 80 -53 166 -77
280 -78 111 -1 182 20 259 76 123 91 185 268 161 463 -19 151 -69 254 -190
389 -34 38 -96 121 -137 184 -42 63 -92 139 -112 169 -79 119 -184 201 -306
237 -93 28 -297 26 -391 -3 -148 -47 -235 -129 -376 -355 -42 -67 -118 -170
-168 -228 -149 -173 -211 -334 -196 -511 20 -239 142 -387 347 -420 79 -13
206 3 275 35 l54 25 0 -237 c0 -176 -4 -254 -15 -301 -49 -205 -224 -381 -432
-435 -88 -23 -538 -23 -626 0 -197 51 -363 210 -428 409 -10 30 -14 173 -19
555 l-5 515 -23 37 c-13 20 -40 47 -60 60 l-37 23 -515 5 c-382 5 -525 9 -555
19 -198 64 -358 232 -409 428 -22 85 -23 542 -1 626 51 195 212 364 410 428
30 10 173 14 555 19 l515 5 37 23 c20 13 47 40 60 60 l23 37 5 515 c5 382 9
525 19 555 48 148 176 301 304 363 118 57 154 62 437 62 283 0 319 -5 437 -62
92 -45 206 -158 256 -254 63 -121 67 -156 67 -553 l0 -353 -35 31 c-108 94
-276 117 -402 55 -102 -49 -169 -132 -214 -261 -100 -293 25 -655 268 -775 62
-30 75 -33 163 -33 87 0 100 3 155 32 33 17 80 50 104 74 49 50 113 175 130
257 7 36 11 267 11 703 0 740 1 726 -80 895 -99 204 -289 356 -512 409 -48 11
-131 15 -353 14 -252 0 -300 -3 -362 -19z m923 -1460 c86 -42 169 -165 195
-289 36 -172 -29 -374 -135 -422 -93 -42 -180 -13 -257 88 -107 139 -134 336
-68 490 29 69 62 107 111 132 54 26 100 27 154 1z m624 -1194 c84 -31 133 -77
216 -203 42 -65 92 -142 112 -170 19 -29 68 -92 110 -140 137 -160 166 -231
160 -384 -4 -114 -30 -175 -93 -220 -99 -71 -225 -56 -385 47 -165 105 -387
102 -560 -6 -89 -55 -126 -71 -189 -80 -154 -21 -256 56 -281 213 -23 148 20
265 158 427 50 57 127 164 173 237 131 208 178 254 299 288 68 19 215 14 280
-9z"/>
<path d="M4025 3827 c-67 -23 -107 -47 -168 -105 -102 -98 -167 -235 -187
-398 -26 -204 51 -424 181 -520 77 -56 149 -77 243 -71 106 7 184 45 263 130
113 121 173 279 173 458 0 123 -13 183 -59 284 -69 149 -178 226 -326 232 -48
2 -96 -2 -120 -10z m199 -198 c72 -48 116 -144 123 -269 3 -49 0 -110 -6 -143
-25 -119 -121 -261 -198 -293 -72 -31 -163 -7 -216 55 -58 70 -92 216 -75 332
21 152 92 268 202 332 43 24 123 18 170 -14z"/>
<path d="M670 3153 c-60 -12 -152 -64 -205 -117 -76 -76 -117 -164 -123 -265
-5 -92 10 -119 74 -128 61 -8 92 23 103 103 20 136 98 215 234 234 69 10 95
30 103 81 5 28 1 41 -21 67 -25 29 -31 32 -83 31 -32 -1 -68 -4 -82 -6z"/>
<path d="M1045 3135 c-36 -35 -34 -88 4 -126 27 -26 36 -29 96 -29 69 0 118
17 129 45 3 9 6 34 6 55 0 60 -32 80 -132 80 -70 0 -82 -3 -103 -25z"/>
<path d="M2260 2951 c-50 -16 -87 -40 -127 -84 -148 -161 -101 -486 94 -643
75 -61 150 -88 248 -88 70 -1 86 3 133 28 95 53 150 147 159 271 11 147 -36
281 -139 390 -82 88 -161 127 -266 131 -42 2 -88 0 -102 -5z m168 -197 c61
-30 96 -69 130 -143 72 -156 13 -315 -110 -298 -182 24 -296 340 -162 446 36
28 79 26 142 -5z"/>
<path d="M4719 2945 c-150 -55 -256 -173 -304 -339 -13 -43 -16 -84 -13 -155
4 -83 8 -104 35 -156 71 -137 197 -191 349 -150 155 42 267 161 319 339 26 90
17 233 -19 308 -32 68 -99 130 -163 152 -56 19 -154 20 -204 1z m170 -190 c79
-67 66 -231 -27 -353 -32 -42 -117 -92 -157 -92 -73 0 -125 67 -125 164 0 113
67 230 159 278 67 35 110 36 150 3z"/>
</g>
</svg>
